<svg width="20" height="20" viewBox="0 0 20 20" fill="none" xmlns="http://www.w3.org/2000/svg">
<path d="M17.285 10.8709C16.7203 11.0209 16.1385 11.0968 15.5542 11.0968C13.775 11.0968 12.1042 10.4051 10.8492 9.15009C10.0251 8.32121 9.43258 7.29081 9.13079 6.16159C8.829 5.03236 8.82845 3.84376 9.12919 2.71426C9.16675 2.57304 9.16651 2.42442 9.1285 2.28332C9.09049 2.14222 9.01604 2.01359 8.91262 1.91034C8.80921 1.8071 8.68046 1.73286 8.5393 1.69508C8.39814 1.6573 8.24952 1.6573 8.10836 1.69509C6.69432 2.07191 5.40424 2.81395 4.36752 3.84676C1.11919 7.09509 1.11919 12.3826 4.36752 15.6326C5.13963 16.409 6.05805 17.0246 7.06964 17.4437C8.08123 17.8628 9.16589 18.0771 10.2609 18.0743C11.3555 18.0773 12.4399 17.8632 13.4513 17.4442C14.4626 17.0252 15.3807 16.4097 16.1525 15.6334C17.1861 14.5965 17.9285 13.3057 18.305 11.8909C18.3424 11.7498 18.3421 11.6013 18.3041 11.4602C18.2661 11.3192 18.1918 11.1907 18.0885 11.0874C17.9853 10.9842 17.8567 10.9098 17.7157 10.8718C17.5747 10.8338 17.4262 10.8335 17.285 10.8709ZM14.975 14.4551C14.3575 15.076 13.623 15.5683 12.8139 15.9034C12.0049 16.2386 11.1374 16.4099 10.2617 16.4076C9.38568 16.4098 8.51794 16.2383 7.70863 15.903C6.89932 15.5677 6.16451 15.0753 5.54669 14.4543C2.94836 11.8551 2.94836 7.62509 5.54669 5.02593C6.04878 4.5244 6.62844 4.1071 7.26336 3.79009C7.17042 4.98931 7.33748 6.19445 7.75313 7.32317C8.16877 8.45188 8.8232 9.47755 9.67169 10.3301C10.5224 11.1812 11.5477 11.8375 12.6769 12.2534C13.8061 12.6694 15.0122 12.8352 16.2117 12.7393C15.893 13.3731 15.4755 13.9523 14.975 14.4551Z" fill="#2E2E2E"/>
</svg>
