<svg width="20" height="20" viewBox="0 0 20 20" fill="none" xmlns="http://www.w3.org/2000/svg">
<path d="M16.3608 6.66412C16.3716 6.80995 16.3716 6.95496 16.3716 7.09996C16.3716 11.5375 12.9941 16.6508 6.82163 16.6508C4.91996 16.6508 3.15329 16.1 1.66663 15.1433C1.93663 15.1741 2.19663 15.185 2.47746 15.185C3.98829 15.1886 5.45633 14.6834 6.64496 13.7508C5.94448 13.7381 5.26544 13.507 4.70266 13.0897C4.13988 12.6725 3.72145 12.0899 3.50579 11.4233C3.71329 11.4541 3.92163 11.475 4.13996 11.475C4.44079 11.475 4.74329 11.4333 5.02413 11.3608C4.26393 11.2073 3.58035 10.7952 3.08964 10.1947C2.59893 9.59414 2.33137 8.84216 2.33246 8.06662V8.02495C2.77996 8.27412 3.29913 8.42995 3.84913 8.45079C3.38837 8.14461 3.01056 7.72914 2.74941 7.24145C2.48826 6.75375 2.35189 6.209 2.35246 5.65579C2.35246 5.03245 2.51829 4.46079 2.80913 3.96245C3.65257 4.99997 4.70455 5.84876 5.89691 6.45384C7.08927 7.05892 8.39543 7.4068 9.73079 7.47496C9.67913 7.22495 9.64746 6.96579 9.64746 6.70579C9.64724 6.26492 9.73391 5.82834 9.90252 5.42099C10.0711 5.01364 10.3184 4.64352 10.6301 4.33178C10.9419 4.02004 11.312 3.7728 11.7193 3.60419C12.1267 3.43558 12.5633 3.3489 13.0041 3.34912C13.9708 3.34912 14.8433 3.75412 15.4566 4.40912C16.2081 4.2638 16.9287 3.98947 17.5866 3.59829C17.3361 4.37397 16.8114 5.03171 16.1108 5.44829C16.7773 5.37227 17.4287 5.197 18.0433 4.92829C17.5842 5.59754 17.0154 6.18441 16.3608 6.66412Z" fill="#595959"/>
</svg>
